<svg xmlns="http://www.w3.org/2000/svg" viewBox="0 0 663 185" fill-rule="evenodd" clip-rule="evenodd" stroke-linejoin="round" stroke-miterlimit="2" title="Hatari. Wind of happiness"><title id="logoTitleID">Hatari - Wind of happiness</title><defs><style>.logo_svg__-fill{fill:currentColor}</style></defs><path class="logo_svg__-fill" d="M3.067 37.84h30.346a3.066 3.066 0 013.062 3.067v56.116c0 1.692 1.38 3.071 3.067 3.071h52.275a3.073 3.073 0 003.066-3.07V40.906a3.07 3.07 0 013.071-3.067h30.367a3.071 3.071 0 013.075 3.067v140.287a3.074 3.074 0 01-3.075 3.067H97.954a3.073 3.073 0 01-3.07-3.067v-56.116c0-1.7-1.376-3.071-3.067-3.071H39.542a3.07 3.07 0 00-3.067 3.07v56.117a3.068 3.068 0 01-3.062 3.067H3.067A3.067 3.067 0 010 181.194V40.907a3.064 3.064 0 013.067-3.067M502.77 103.1c0-20.171 15.883-36.484 36.05-36.484l55.97.013a2.55 2.55 0 012.555 2.545v16.8a2.557 2.557 0 01-2.554 2.555l-41.367-.005c-8.07 0-14.612 6.538-14.612 14.609l.008 78.179a2.552 2.552 0 01-2.55 2.558h-30.967a2.555 2.555 0 01-2.554-2.558l.021-78.213zM306.643 146.93c0 8.071 6.55 14.625 14.617 14.625l40.912-.012c1.596 0 2.9 1.296 2.9 2.896v16.52c0 1.6-1.296 2.896-2.9 2.896h-55.55c-20.15 0-36.475-16.329-36.475-36.479V40.422c0-1.65 1.33-2.98 2.983-2.98h30.509a2.982 2.982 0 012.983 2.98V63.63c0 1.65 1.33 2.988 2.984 2.988h52.1c1.537 0 2.537 1.62 1.841 2.996l-8.525 16.691a4.07 4.07 0 01-3.62 2.213h-41.796a2.984 2.984 0 00-2.984 2.987l.021 55.425zM629.34 72.715l-30.817 107.838c-.475 1.654.767 3.308 2.488 3.308h58.87a2.593 2.593 0 002.5-3.283L632.762 72.74c-.471-1.741-2.925-1.754-3.421-.025M631.086 58.442c16.133 0 29.23-13.071 29.23-29.221C660.315 13.083 647.218 0 631.085 0c-16.146 0-29.233 13.083-29.233 29.22 0 16.15 13.087 29.222 29.233 29.222M216.334 161.542h-18.596c-7.546 0-14.275-5.55-14.942-13.075-.77-8.654 6.042-15.942 14.555-15.942h18.983c1.475 0 2.68 1.2 2.68 2.68v23.654a2.683 2.683 0 01-2.68 2.683m2.546-94.925h-64.93c-1.5 0-2.716 1.22-2.716 2.725v16.454a2.719 2.719 0 002.717 2.725h50.429c8.075 0 14.612 6.546 14.612 14.613l-.004 4.858a2.678 2.678 0 01-2.67 2.68l-33.822.087c-21.366-.25-38.47 18.283-36.304 40.1 1.875 18.954 18.58 32.996 37.617 32.996h68.596c1.737 0 3.146-1.4 3.146-3.138v-77.433c0-20.167-16.504-36.667-36.671-36.667M448.945 161.746h-18.617c-7.554 0-14.258-5.58-14.896-13.104-.737-8.654 6.063-15.884 14.563-15.884l18.92-.187a2.715 2.715 0 012.738 2.72v23.747a2.708 2.708 0 01-2.708 2.708m2.57-94.913h-66.724a2.706 2.706 0 00-2.709 2.713V86.02c0 1.5 1.209 2.72 2.709 2.72h52.241c8.067 0 14.605 6.538 14.605 14.609l.012 4.583a2.717 2.717 0 01-2.696 2.725l-33.779.18c-21.35 0-38.42 18.325-36.35 40.095 1.804 19.013 18.508 33.142 37.6 33.142h69.054a2.713 2.713 0 002.713-2.712V103.5c0-20.163-16.504-36.667-36.675-36.667" fill-rule="nonzero"></path></svg>