<svg xmlns="http://www.w3.org/2000/svg" viewBox="0 0 90 90"><g fill="currentColor"><path d="M45 61.3a16.3 16.3 0 1 1 11.52-4.77A16.2 16.2 0 0 1 45 61.3zm0-30.1a13.8 13.8 0 1 0 9.76 23.56A13.8 13.8 0 0 0 45 31.2z"></path><path d="M50.18 78.85H39.82a1.25 1.25 0 0 1-1.25-1.15L38 71.18a1.92 1.92 0 0 0-1.33-1.67 26.64 26.64 0 0 1-3.18-1.32 1.93 1.93 0 0 0-2.11.24l-5 4.24a1.25 1.25 0 0 1-1.69-.07l-7.29-7.33a1.25 1.25 0 0 1-.07-1.69l4.24-5a1.93 1.93 0 0 0 .24-2.12 26.64 26.64 0 0 1-1.32-3.18A1.93 1.93 0 0 0 18.83 52l-6.53-.53a1.25 1.25 0 0 1-1.15-1.25v-10.4a1.25 1.25 0 0 1 1.15-1.25l6.53-.57a1.93 1.93 0 0 0 1.66-1.33 26.64 26.64 0 0 1 1.32-3.18 1.93 1.93 0 0 0-.24-2.12l-4.24-5a1.25 1.25 0 0 1 .07-1.69l7.33-7.33a1.25 1.25 0 0 1 1.69-.07l5 4.24a1.91 1.91 0 0 0 2.11.24 25.34 25.34 0 0 1 3.18-1.32A1.93 1.93 0 0 0 38 18.82l.53-6.52a1.25 1.25 0 0 1 1.25-1.15h10.4a1.25 1.25 0 0 1 1.25 1.15l.57 6.52a1.93 1.93 0 0 0 1.33 1.67 25.34 25.34 0 0 1 3.18 1.32 1.91 1.91 0 0 0 2.11-.24l5-4.24a1.25 1.25 0 0 1 1.69.07l7.33 7.33a1.25 1.25 0 0 1 .07 1.69l-4.24 5a1.93 1.93 0 0 0-.24 2.12 26.64 26.64 0 0 1 1.32 3.18A1.93 1.93 0 0 0 71.18 38l6.52.53a1.25 1.25 0 0 1 1.15 1.25v10.4a1.25 1.25 0 0 1-1.15 1.25l-6.53.57a1.93 1.93 0 0 0-1.66 1.33 26.64 26.64 0 0 1-1.32 3.18 1.93 1.93 0 0 0 .24 2.12l4.24 5a1.25 1.25 0 0 1-.07 1.69l-7.33 7.28a1.25 1.25 0 0 1-1.69.07l-5-4.24a1.93 1.93 0 0 0-2.11-.24 26.64 26.64 0 0 1-3.18 1.32A1.92 1.92 0 0 0 52 71.18l-.53 6.52a1.25 1.25 0 0 1-1.29 1.15zM41 76.35h8l.47-5.35a4.44 4.44 0 0 1 3-3.83A23.79 23.79 0 0 0 55.36 66a4.41 4.41 0 0 1 4.84.57L64.32 70l5.7-5.7-3.5-4.12a4.43 4.43 0 0 1-.52-4.82 23.79 23.79 0 0 0 1.19-2.87 4.44 4.44 0 0 1 3.83-3l5.33-.49v-8L71 40.53a4.44 4.44 0 0 1-3.83-3A23.79 23.79 0 0 0 66 34.64a4.43 4.43 0 0 1 .57-4.84L70 25.68 64.32 20l-4.12 3.5a4.43 4.43 0 0 1-4.84.57 23.14 23.14 0 0 0-2.87-1.19 4.44 4.44 0 0 1-3-3.83l-.49-5.4h-8L40.53 19a4.44 4.44 0 0 1-3 3.83 23.14 23.14 0 0 0-2.87 1.19 4.43 4.43 0 0 1-4.84-.57L25.68 20 20 25.68l3.5 4.12a4.43 4.43 0 0 1 .57 4.84 23.79 23.79 0 0 0-1.19 2.87 4.44 4.44 0 0 1-3.83 3l-5.4.49v8l5.38.44a4.44 4.44 0 0 1 3.83 3 23.79 23.79 0 0 0 1.19 2.87 4.43 4.43 0 0 1-.57 4.84L20 64.32l5.7 5.7 4.12-3.5a4.41 4.41 0 0 1 4.82-.52 23.79 23.79 0 0 0 2.87 1.19 4.44 4.44 0 0 1 3 3.83z"></path></g></svg>