<svg xmlns="http://www.w3.org/2000/svg" viewBox="0 0 90 90"><path d="M80.48 79.41h-.18l-10.69-1.95a19.65 19.65 0 0 1-8.6 2 19.86 19.86 0 0 1-15.41-7.33 1 1 0 1 1 1.54-1.27A18 18 0 0 0 69 75.53a1 1 0 0 1 .62-.09l9.1 1.64-3-6.42a1 1 0 0 1 .08-1A17.94 17.94 0 0 0 71 44.59a1 1 0 0 1-.27-1.38 1 1 0 0 1 1.39-.27 19.93 19.93 0 0 1 5.58 27.37L81.38 78a1 1 0 0 1-.9 1.42z" fill="currentColor"></path><path d="M11.48 67.69l5.61-11.82a27.36 27.36 0 1 1 10.3 8.94z" fill="currentColor"></path><g fill="currentColor"><path d="M11.48 68.69a1 1 0 0 1-.8-.39 1 1 0 0 1-.1-1L15.94 56a28.31 28.31 0 1 1 11.3 9.9l-15.58 2.78zm15.91-4.88a1 1 0 0 1 .45.11 26.08 26.08 0 0 0 11.77 2.77 26.37 26.37 0 1 0-21.7-11.39 1 1 0 0 1 .08 1l-4.77 10.06 14-2.53z"></path><circle cx="53.75" cy="41.23" r="3.06"></circle><circle cx="39.11" cy="41.23" r="3.06"></circle><circle cx="24.46" cy="41.23" r="3.06"></circle></g></svg>