<svg xmlns="http://www.w3.org/2000/svg" viewBox="0 0 90 90"><g data-name="Layer 2"><path fill="currentColor" d="M45 9a36 36 0 1 0 36 36A36 36 0 0 0 45 9zm24 37.83a73.55 73.55 0 0 1-.48 7.82s-.47 3.33-1.91 4.8a6.89 6.89 0 0 1-4.81 2C55.09 62 45 62 45 62s-12.48-.11-16.32-.49c-1.07-.2-3.47-.14-5.29-2.06-1.44-1.47-1.91-4.8-1.91-4.8a73.55 73.55 0 0 1-.48-7.82v-3.67a73.86 73.86 0 0 1 .48-7.83S22 32 23.39 30.54a6.8 6.8 0 0 1 4.81-2.05C34.91 28 45 28 45 28s10.08 0 16.79.49a6.8 6.8 0 0 1 4.81 2.05c1.44 1.46 1.91 4.79 1.91 4.79a73.86 73.86 0 0 1 .49 7.83z"></path><path fill="currentColor" d="M40.04 51.27l12.97-6.77-12.97-6.81v13.58z"></path></g></svg>