<svg xmlns="http://www.w3.org/2000/svg" viewBox="0 0 90 90"><g fill="currentColor"><path d="M24.62 78.88a13.49 13.49 0 0 1-4.19-.67 1 1 0 0 1-.67-.72 1 1 0 0 1 .27-.94l7.3-7.3-6.58-6.59-7.26 7.26a1 1 0 0 1-1 .27 1 1 0 0 1-.71-.67A13.29 13.29 0 0 1 15 56a14.12 14.12 0 0 1 13.93-3.21l23.9-23.9A14 14 0 0 1 56 15a13.29 13.29 0 0 1 13.56-3.25 1 1 0 0 1 .66.71 1 1 0 0 1-.26.94l-7.25 7.25 6.59 6.58 7.2-7.2a1 1 0 0 1 .94-.26 1 1 0 0 1 .72.66A13.35 13.35 0 0 1 75 34a14.12 14.12 0 0 1-14 3.2L37.19 61.08C38.45 65.14 38 71 34 75a13.3 13.3 0 0 1-9.38 3.88zm-1.92-2.17a11.26 11.26 0 0 0 9.9-3.14c3.56-3.56 3.79-8.93 2.5-12.41a1 1 0 0 1 .23-1.06l24.73-24.72a1 1 0 0 1 1.06-.23 12.05 12.05 0 0 0 12.48-2.53 11.23 11.23 0 0 0 3.06-9.88L70 29.39a1 1 0 0 1-1.41 0l-8-8a1 1 0 0 1 0-1.41l6.7-6.7a11.28 11.28 0 0 0-9.87 3.17c-3.54 3.54-3.79 8.89-2.51 12.36a1 1 0 0 1-.23 1.06L40.39 44.16 29.91 54.64a1 1 0 0 1-1.06.23 12.07 12.07 0 0 0-12.43 2.53 11.25 11.25 0 0 0-3.09 9.85L20 60.54a1 1 0 0 1 1.41 0l8 8a1 1 0 0 1 .29.71 1 1 0 0 1-.29.71z"></path><path d="M39.69 44.45a1 1 0 0 1-.71-.29L25.16 30.33l-3.08-.78a1.06 1.06 0 0 1-.51-.32l-9.41-11a1 1 0 0 1 .05-1.36L17 12.14a1 1 0 0 1 1.35-.05l11 9.41a1 1 0 0 1 .32.51l.89 3.48 13.52 13.57a1 1 0 0 1-1.41 1.41L28.91 26.71a1.08 1.08 0 0 1-.27-.46l-.88-3.44-10-8.6-3.43 3.43 8.61 10.05 3 .78a1 1 0 0 1 .46.26l14 14a1 1 0 0 1 0 1.42 1 1 0 0 1-.71.3zM69.1 78.15a6.81 6.81 0 0 1-4.85-2L49 60.92a6.86 6.86 0 0 1-1.25-8L45.84 51a1 1 0 0 1 1.41-1.41l2.48 2.48a1 1 0 0 1 .12 1.27 4.85 4.85 0 0 0 .58 6.15l15.23 15.24a4.85 4.85 0 0 0 6.87 0l2.13-2.12a4.87 4.87 0 0 0 0-6.87L59.43 50.51a4.86 4.86 0 0 0-6.16-.59A1 1 0 0 1 52 49.8l-2.48-2.47a1 1 0 0 1 1.42-1.42l1.93 1.93a6.85 6.85 0 0 1 8 1.26l15.2 15.22a6.87 6.87 0 0 1 0 9.7L74 76.14a6.85 6.85 0 0 1-4.9 2.01z"></path></g></svg>