<svg xmlns="http://www.w3.org/2000/svg" viewBox="0 0 90 90"><path d="M61.53 49.76a23.42 23.42 0 0 0 0-33.06v-.05c0-.05 0 0 0 0a23.42 23.42 0 0 0-33.06 0v.05a23.42 23.42 0 0 0 0 33.06A23.37 23.37 0 0 0 39.78 56v17.14h-.34a10.76 10.76 0 0 0-10.75 10.75 1 1 0 0 0 1 1h30.62a1 1 0 0 0 1-1 10.76 10.76 0 0 0-10.75-10.75h-.34V56a23.37 23.37 0 0 0 11.31-6.24zM45 43.05a1 1 0 0 0-1 1v10.5A21.31 21.31 0 0 1 30.58 49l9.49-9.49a8 8 0 0 0 9.85 0l9.5 9.49A21.31 21.31 0 0 1 46 54.55v-10.5a1 1 0 0 0-1-1zm-21.4-8.9h10.66a1 1 0 0 0 0-2H23.6a21.31 21.31 0 0 1 5.57-13.42l9.49 9.49a8 8 0 0 0 0 9.85l-9.49 9.5a21.33 21.33 0 0 1-5.57-13.42zm42.8-2H55.67a1 1 0 0 0 0 2H66.4a21.33 21.33 0 0 1-5.57 13.42l-9.49-9.5a8 8 0 0 0 0-9.85l9.49-9.49a21.31 21.31 0 0 1 5.57 13.42zM49.25 37.4s0 .06-.06.09A6 6 0 0 1 40.63 29a.91.91 0 0 0 .13-.08.67.67 0 0 0 .09-.14 6 6 0 0 1 8.49 8.56zm.67-10.59A7.89 7.89 0 0 0 46 25.18V11.75a21.35 21.35 0 0 1 13.42 5.56zM44 25.18a8 8 0 0 0-3.93 1.63l-9.49-9.5A21.35 21.35 0 0 1 44 11.75zm15.25 57.71H30.74a8.77 8.77 0 0 1 8.7-7.75h11.12a8.76 8.76 0 0 1 8.69 7.75zm-11-9.75h-6.47V56.37a22.65 22.65 0 0 0 6.44 0z" fill="currentColor"></path></svg>