<svg xmlns="http://www.w3.org/2000/svg" viewBox="0 0 24 28" fill-rule="evenodd" clip-rule="evenodd" stroke-linejoin="round" stroke-miterlimit="1.414"><path d="M5.846 5.143C6.154 2.227 8.65-.076 11.642-.076c2.991 0 5.487 2.303 5.795 5.219h.032v.533l.001.076-.001.072h3.187l.004-.001h.028a1.73 1.73 0 0 1 1.723 1.7l.871 18.777a1.732 1.732 0 0 1-1.724 1.7H1.724A1.732 1.732 0 0 1 0 26.3L.875 7.524c.013-.937.787-1.7 1.724-1.7H5.814v-.072-.609h.032zm-.032 2.381H2.625V7.6l-.872 18.699h19.775l-.872-18.7v-.075h-3.187v1.707h-1.832V7.524h-7.99v1.709H5.814V7.524zm9.604-2.381c-.301-1.808-1.888-3.205-3.776-3.205-1.889 0-3.476 1.397-3.777 3.205h7.553z" fill="currentColor" fill-rule="nonzero"></path></svg>