<svg xmlns="http://www.w3.org/2000/svg" viewBox="0 0 22 22" fill-rule="evenodd" clip-rule="evenodd" stroke-linejoin="round" stroke-miterlimit="1.414" class="css-1nhhpbg eldpwuh0"><path d="M10.987 0H11c6.071 0 11 4.929 11 11s-4.929 11-11 11h-.044C4.905 21.976 0 17.056 0 11S4.905.024 10.956 0h.031zM10 19.685V17H8.087c.529 1.275 1.202 2.223 1.913 2.685zM13.905 17H12v2.662c.723-.47 1.388-1.406 1.905-2.662zm3.809 0h-1.687a12.123 12.123 0 0 1-.922 2.012A9.068 9.068 0 0 0 17.714 17zM5.933 17H4.286a9.075 9.075 0 0 0 2.552 1.982A12.072 12.072 0 0 1 5.933 17zm14.029-5h-2.984a18.864 18.864 0 0 1-.387 3.003h2.482A8.959 8.959 0 0 0 19.962 12zm-5.011 0H12v3.002h2.535c.214-.921.36-1.932.416-3.002zm-7.503 3.001H10V12H7.018c.059 1.067.209 2.079.43 3.001zM4.982 12H2.038a8.977 8.977 0 0 0 .888 3l2.443.001A18.838 18.838 0 0 1 4.982 12zm14.111-5h-2.502c.203.945.335 1.953.387 3.003l2.988.001A8.934 8.934 0 0 0 19.093 7zm-4.58 0H12v3.002l2.95.001A16.896 16.896 0 0 0 14.513 7zm-7.496 3.001l2.983.001V7H7.439a17.265 17.265 0 0 0-.422 3.001zM5.369 7H2.907a8.958 8.958 0 0 0-.873 3l2.948.001c.052-1.05.185-2.057.387-3.001zm9.704-4.066c.363.614.684 1.309.955 2.069h1.722a9.045 9.045 0 0 0-2.677-2.069zM12 2.315v2.687h1.871c-.524-1.26-1.184-2.207-1.871-2.687zm-2-.024c-.727.472-1.403 1.428-1.93 2.71H10v-2.71zm-3.13.672A9.056 9.056 0 0 0 4.252 5l1.68.001c.267-.747.582-1.431.938-2.038z" fill="currentColor"></path></svg>