<svg xmlns="http://www.w3.org/2000/svg" clip-rule="evenodd" fill-rule="evenodd" stroke-linejoin="round" stroke-miterlimit="1.414" viewBox="0 0 768 475" class="false css-se0ure eldpwuh1"><path d="M707.874.103c2.558.311 5.14.467 7.675.932 25.316 4.637 46.736 25.773 51.437 51.415 3.26 17.783-1.449 36.809-12.577 51.006-1.59 2.028-3.418 3.857-5.127 5.785l-365.41 365.255L18.463 109.241l-5.127-5.785c-1.464-2.12-3.059-4.155-4.392-6.36-13.315-22.017-11.692-52.058 4.392-72.58C29.22 4.251 57.886-4.871 82.785 2.884a64.056 64.056 0 0 1 14.076 6.332c5.899 3.565 7.018 4.971 12.15 9.516l274.861 274.745L658.734 18.732l5.787-5.125c2.121-1.464 4.158-3.058 6.363-4.391a64.056 64.056 0 0 1 14.076-6.332c6.581-2.05 8.376-1.955 15.182-2.781h7.732z" fill="currentColor" fill-rule="nonzero"></path></svg>